<svg id="visual" viewBox="0 0 960 540" width="960" height="540" xmlns="http://www.w3.org/2000/svg" xmlns:xlink="http://www.w3.org/1999/xlink" version="1.1"><rect x="0" y="0" width="960" height="540" fill="#fca311"></rect><defs><linearGradient id="grad1_0" x1="43.8%" y1="100%" x2="100%" y2="0%"><stop offset="14.444444444444446%" stop-color="#fca311" stop-opacity="1"></stop><stop offset="85.55555555555554%" stop-color="#fca311" stop-opacity="1"></stop></linearGradient></defs><defs><linearGradient id="grad2_0" x1="0%" y1="100%" x2="56.3%" y2="0%"><stop offset="14.444444444444446%" stop-color="#fca311" stop-opacity="1"></stop><stop offset="85.55555555555554%" stop-color="#fca311" stop-opacity="1"></stop></linearGradient></defs><g transform="translate(960, 540)"><path d="M-486 0C-482.8 -51.2 -479.5 -102.4 -462.2 -150.2C-444.9 -198 -413.5 -242.3 -373.8 -271.6C-334 -300.8 -285.9 -315 -246.9 -339.8C-207.9 -364.6 -178.1 -399.9 -138.4 -426.1C-98.8 -452.2 -49.4 -469.1 0 -486L0 0Z" fill="#14213d"></path></g><g transform="translate(0, 0)"><path d="M486 0C433.1 39.3 380.3 78.6 349 113.4C317.8 148.2 308.1 178.4 296.9 215.7C285.7 253.1 272.8 297.5 249.8 343.8C226.8 390.1 193.5 438.2 150.2 462.2C106.8 486.2 53.4 486.1 0 486L0 0Z" fill="#14213d"></path></g></svg>