<svg id="visual" viewBox="0 0 1620 980" width="1620" height="980" xmlns="http://www.w3.org/2000/svg" xmlns:xlink="http://www.w3.org/1999/xlink" version="1.1"><rect x="0" y="0" width="1620" height="980" fill="#FBAE3C"></rect><defs><linearGradient id="grad1_0" x1="39.5%" y1="100%" x2="100%" y2="0%"><stop offset="16.93877551020408%" stop-color="#fbae3c" stop-opacity="1"></stop><stop offset="83.06122448979592%" stop-color="#fbae3c" stop-opacity="1"></stop></linearGradient></defs><defs><linearGradient id="grad2_0" x1="0%" y1="100%" x2="60.5%" y2="0%"><stop offset="16.93877551020408%" stop-color="#fbae3c" stop-opacity="1"></stop><stop offset="83.06122448979592%" stop-color="#fbae3c" stop-opacity="1"></stop></linearGradient></defs><g transform="translate(1620, 980)"><path d="M-692 0C-734.7 -85.6 -777.4 -171.3 -765.3 -248.7C-753.2 -326 -686.4 -395.1 -626.2 -454.9C-566 -514.8 -512.3 -565.3 -452 -622.1C-391.7 -678.9 -324.6 -742 -248.1 -763.7C-171.7 -785.4 -85.8 -765.7 0 -746L0 0Z" fill="#14213d"></path></g><g transform="translate(0, 0)"><path d="M774 0C764.8 77.6 755.5 155.1 738 239.8C720.5 324.5 694.8 416.3 631 458.5C567.2 500.6 465.4 493.1 400.9 551.7C336.4 610.4 309.2 735.2 248.7 765.3C188.1 795.4 94 730.7 0 666L0 0Z" fill="#14213d"></path></g></svg>