<svg id="visual" viewBox="0 0 1580 890" width="1580" height="890" xmlns="http://www.w3.org/2000/svg" xmlns:xlink="http://www.w3.org/1999/xlink" version="1.1"><rect x="0" y="0" width="1580" height="890" fill="#fca311"></rect><defs><linearGradient id="grad1_0" x1="43.7%" y1="100%" x2="100%" y2="0%"><stop offset="14.494382022471912%" stop-color="#fca311" stop-opacity="1"></stop><stop offset="85.50561797752809%" stop-color="#fca311" stop-opacity="1"></stop></linearGradient></defs><defs><linearGradient id="grad2_0" x1="0%" y1="100%" x2="56.3%" y2="0%"><stop offset="14.494382022471912%" stop-color="#fca311" stop-opacity="1"></stop><stop offset="85.50561797752809%" stop-color="#fca311" stop-opacity="1"></stop></linearGradient></defs><g transform="translate(1580, 890)"><path d="M-746 0C-761.5 -44.3 -777.1 -88.6 -784.9 -138.4C-792.7 -188.2 -792.8 -243.4 -753.6 -274.3C-714.4 -305.2 -635.9 -312 -609.7 -352C-583.4 -392 -609.4 -465.4 -581.4 -487.9C-553.4 -510.3 -471.4 -481.8 -446.7 -532.4C-422.1 -583 -454.9 -712.8 -422.8 -732.2C-390.6 -751.6 -293.5 -660.7 -235.7 -647.4C-177.8 -634.2 -159.3 -698.6 -126.6 -717.9C-93.9 -737.3 -46.9 -711.6 0 -686L0 0Z" fill="#14213d"></path></g><g transform="translate(0, 0)"><path d="M817 0C769.8 38.4 722.7 76.9 731.7 129C740.7 181.2 805.9 247 794.5 289.2C783.1 331.4 695.2 349.9 634.8 366.5C574.4 383.1 541.7 397.9 536.2 450C530.8 502 552.7 591.5 528.4 629.7C504 667.9 433.4 654.8 381 659.9C328.6 665 294.4 688.4 254.5 699.1C214.5 709.9 168.9 708.1 125.5 712C82.2 715.9 41.1 725.5 0 735L0 0Z" fill="#14213d"></path></g></svg>